<mxfile host="app.diagrams.net" modified="2021-04-22T06:25:55.139Z" agent="5.0 (Macintosh; Intel Mac OS X 10_15_7) AppleWebKit/537.36 (KHTML, like Gecko) Chrome/90.0.4430.72 Safari/537.36" etag="BL53ml-ex1vNmL29xbyi" version="14.6.3" type="github">
  <diagram id="5i8NDIdGCb8DNyT52elz" name="第 1 页">
    <mxGraphModel dx="1954" dy="1044" grid="1" gridSize="10" guides="1" tooltips="1" connect="1" arrows="1" fold="1" page="0" pageScale="1" pageWidth="1169" pageHeight="827" math="0" shadow="0">
      <root>
        <mxCell id="0" />
        <mxCell id="1" parent="0" />
        <mxCell id="mn38bhdYBXqbmsw6AmZh-78" style="edgeStyle=orthogonalEdgeStyle;rounded=0;orthogonalLoop=1;jettySize=auto;html=1;exitX=0.5;exitY=1;exitDx=0;exitDy=0;fontColor=#B85450;startArrow=none;startFill=0;endArrow=classicThin;endFill=1;strokeWidth=2;" edge="1" parent="1" source="mn38bhdYBXqbmsw6AmZh-73" target="mn38bhdYBXqbmsw6AmZh-75">
          <mxGeometry relative="1" as="geometry" />
        </mxCell>
        <mxCell id="mn38bhdYBXqbmsw6AmZh-73" value="" style="rounded=0;whiteSpace=wrap;html=1;strokeColor=#82b366;strokeWidth=2;fillColor=#d5e8d4;dashed=1;" vertex="1" parent="1">
          <mxGeometry x="-220" y="485" width="192" height="250" as="geometry" />
        </mxCell>
        <mxCell id="mn38bhdYBXqbmsw6AmZh-52" style="edgeStyle=orthogonalEdgeStyle;rounded=0;orthogonalLoop=1;jettySize=auto;html=1;exitX=0;exitY=0.5;exitDx=0;exitDy=0;entryX=1;entryY=0.5;entryDx=0;entryDy=0;fontColor=#B85450;startArrow=none;startFill=0;endArrow=classicThin;endFill=1;strokeWidth=2;" edge="1" parent="1" source="mn38bhdYBXqbmsw6AmZh-40" target="mn38bhdYBXqbmsw6AmZh-51">
          <mxGeometry relative="1" as="geometry" />
        </mxCell>
        <mxCell id="mn38bhdYBXqbmsw6AmZh-40" value="" style="rounded=0;whiteSpace=wrap;html=1;strokeColor=#666666;strokeWidth=2;fillColor=#f5f5f5;fontColor=#333333;dashed=1;" vertex="1" parent="1">
          <mxGeometry x="180" y="310" width="460" height="110" as="geometry" />
        </mxCell>
        <mxCell id="mn38bhdYBXqbmsw6AmZh-2" value="互联网" style="ellipse;shape=cloud;whiteSpace=wrap;html=1;strokeWidth=2;fillColor=#dae8fc;strokeColor=#6c8ebf;fontColor=#6C8EBF;fontStyle=1;" vertex="1" parent="1">
          <mxGeometry x="1025" y="150" width="120" height="80" as="geometry" />
        </mxCell>
        <mxCell id="mn38bhdYBXqbmsw6AmZh-10" value="" style="edgeStyle=orthogonalEdgeStyle;rounded=0;orthogonalLoop=1;jettySize=auto;html=1;fontColor=#4495D1;strokeWidth=2;startArrow=block;startFill=1;endArrow=block;endFill=1;" edge="1" parent="1" source="mn38bhdYBXqbmsw6AmZh-8" target="mn38bhdYBXqbmsw6AmZh-2">
          <mxGeometry relative="1" as="geometry" />
        </mxCell>
        <mxCell id="mn38bhdYBXqbmsw6AmZh-11" value="请求互联网&lt;br&gt;下载资源" style="edgeLabel;html=1;align=center;verticalAlign=middle;resizable=0;points=[];fontStyle=1;" vertex="1" connectable="0" parent="mn38bhdYBXqbmsw6AmZh-10">
          <mxGeometry x="0.1636" y="-1" relative="1" as="geometry">
            <mxPoint y="6" as="offset" />
          </mxGeometry>
        </mxCell>
        <mxCell id="mn38bhdYBXqbmsw6AmZh-8" value="" style="shadow=0;dashed=0;html=1;strokeColor=none;fillColor=#4495D1;labelPosition=center;verticalLabelPosition=bottom;verticalAlign=top;align=center;outlineConnect=0;shape=mxgraph.veeam.2d.download;fontColor=#D6B656;" vertex="1" parent="1">
          <mxGeometry x="1062.6" y="340" width="44.8" height="44.8" as="geometry" />
        </mxCell>
        <mxCell id="mn38bhdYBXqbmsw6AmZh-9" value="下载器" style="text;html=1;align=center;verticalAlign=middle;resizable=0;points=[];autosize=1;strokeColor=none;fontStyle=1;fontColor=#4495D1;" vertex="1" parent="1">
          <mxGeometry x="1060" y="394" width="50" height="20" as="geometry" />
        </mxCell>
        <mxCell id="mn38bhdYBXqbmsw6AmZh-17" style="edgeStyle=orthogonalEdgeStyle;rounded=0;orthogonalLoop=1;jettySize=auto;html=1;exitX=1;exitY=0.25;exitDx=0;exitDy=0;exitPerimeter=0;fontColor=#4D9900;startArrow=none;startFill=0;endArrow=openThin;endFill=0;strokeWidth=2;" edge="1" parent="1" source="mn38bhdYBXqbmsw6AmZh-13" target="mn38bhdYBXqbmsw6AmZh-8">
          <mxGeometry relative="1" as="geometry">
            <Array as="points">
              <mxPoint x="1010" y="353" />
              <mxPoint x="1010" y="353" />
            </Array>
          </mxGeometry>
        </mxCell>
        <mxCell id="mn38bhdYBXqbmsw6AmZh-19" style="edgeStyle=orthogonalEdgeStyle;rounded=0;orthogonalLoop=1;jettySize=auto;html=1;exitX=1;exitY=0.75;exitDx=0;exitDy=0;exitPerimeter=0;fontColor=#4D9900;startArrow=openThin;startFill=0;endArrow=none;endFill=0;strokeWidth=2;" edge="1" parent="1" source="mn38bhdYBXqbmsw6AmZh-13" target="mn38bhdYBXqbmsw6AmZh-8">
          <mxGeometry relative="1" as="geometry">
            <Array as="points">
              <mxPoint x="1030" y="378" />
              <mxPoint x="1030" y="378" />
            </Array>
          </mxGeometry>
        </mxCell>
        <mxCell id="mn38bhdYBXqbmsw6AmZh-24" style="edgeStyle=orthogonalEdgeStyle;rounded=0;orthogonalLoop=1;jettySize=auto;html=1;exitX=0.25;exitY=0;exitDx=0;exitDy=0;exitPerimeter=0;fontColor=#FF9933;startArrow=none;startFill=0;endArrow=classicThin;endFill=1;strokeWidth=2;" edge="1" parent="1" source="mn38bhdYBXqbmsw6AmZh-13">
          <mxGeometry relative="1" as="geometry">
            <mxPoint x="878" y="250" as="targetPoint" />
          </mxGeometry>
        </mxCell>
        <mxCell id="mn38bhdYBXqbmsw6AmZh-25" style="edgeStyle=orthogonalEdgeStyle;rounded=0;orthogonalLoop=1;jettySize=auto;html=1;exitX=0.75;exitY=0;exitDx=0;exitDy=0;exitPerimeter=0;fontColor=#FF9933;startArrow=classicThin;startFill=1;endArrow=none;endFill=0;strokeWidth=2;" edge="1" parent="1" source="mn38bhdYBXqbmsw6AmZh-13">
          <mxGeometry relative="1" as="geometry">
            <mxPoint x="903" y="250" as="targetPoint" />
          </mxGeometry>
        </mxCell>
        <mxCell id="mn38bhdYBXqbmsw6AmZh-42" style="edgeStyle=orthogonalEdgeStyle;rounded=0;orthogonalLoop=1;jettySize=auto;html=1;exitX=0;exitY=0.5;exitDx=0;exitDy=0;exitPerimeter=0;entryX=1;entryY=0.5;entryDx=0;entryDy=0;fontColor=#D6B656;startArrow=none;startFill=0;endArrow=classicThin;endFill=1;strokeWidth=2;" edge="1" parent="1" source="mn38bhdYBXqbmsw6AmZh-13" target="mn38bhdYBXqbmsw6AmZh-40">
          <mxGeometry relative="1" as="geometry" />
        </mxCell>
        <mxCell id="mn38bhdYBXqbmsw6AmZh-43" value="将数据交给PIPELINE" style="edgeLabel;html=1;align=center;verticalAlign=middle;resizable=0;points=[];fontStyle=1" vertex="1" connectable="0" parent="mn38bhdYBXqbmsw6AmZh-42">
          <mxGeometry x="-0.0074" y="1" relative="1" as="geometry">
            <mxPoint y="-2" as="offset" />
          </mxGeometry>
        </mxCell>
        <mxCell id="mn38bhdYBXqbmsw6AmZh-13" value="" style="verticalLabelPosition=bottom;html=1;fillColor=#6ABD46;strokeColor=#ffffff;verticalAlign=top;align=center;points=[[0.085,0.085,0],[0.915,0.085,0],[0.915,0.915,0],[0.085,0.915,0],[0.25,0,0],[0.5,0,0],[0.75,0,0],[1,0.25,0],[1,0.5,0],[1,0.75,0],[0.75,1,0],[0.5,1,0],[0.25,1,0],[0,0.75,0],[0,0.5,0],[0,0.25,0]];pointerEvents=1;shape=mxgraph.cisco_safe.compositeIcon;bgIcon=mxgraph.cisco_safe.architecture.generic_appliance;resIcon=mxgraph.cisco_safe.architecture.wide_area_application_engine;fontColor=#000000;" vertex="1" parent="1">
          <mxGeometry x="865" y="340" width="50" height="50" as="geometry" />
        </mxCell>
        <mxCell id="mn38bhdYBXqbmsw6AmZh-14" value="调度器" style="text;html=1;align=center;verticalAlign=middle;resizable=0;points=[];autosize=1;strokeColor=none;fontStyle=1;fontColor=#4D9900;" vertex="1" parent="1">
          <mxGeometry x="865" y="390" width="50" height="20" as="geometry" />
        </mxCell>
        <mxCell id="mn38bhdYBXqbmsw6AmZh-20" value="&lt;font color=&quot;#000000&quot;&gt;&lt;b&gt;将URL给下载器&lt;/b&gt;&lt;/font&gt;" style="text;html=1;align=center;verticalAlign=middle;resizable=0;points=[];autosize=1;strokeColor=none;fontColor=#4D9900;" vertex="1" parent="1">
          <mxGeometry x="940" y="330" width="100" height="20" as="geometry" />
        </mxCell>
        <mxCell id="mn38bhdYBXqbmsw6AmZh-21" value="&lt;font color=&quot;#000000&quot;&gt;&lt;b&gt;返回下载器请求结果&lt;/b&gt;&lt;/font&gt;" style="text;html=1;align=center;verticalAlign=middle;resizable=0;points=[];autosize=1;strokeColor=none;fontColor=#4D9900;" vertex="1" parent="1">
          <mxGeometry x="932" y="377" width="120" height="20" as="geometry" />
        </mxCell>
        <mxCell id="mn38bhdYBXqbmsw6AmZh-22" value="URL队列" style="outlineConnect=0;gradientColor=none;fillColor=#ffffff;dashed=0;verticalLabelPosition=bottom;verticalAlign=top;align=center;html=1;fontSize=12;fontStyle=0;aspect=fixed;shape=mxgraph.aws4.resourceIcon;resIcon=mxgraph.aws4.queue;strokeColor=#FF9933;fontColor=#FF9933;" vertex="1" parent="1">
          <mxGeometry x="860" y="150" width="70" height="70" as="geometry" />
        </mxCell>
        <mxCell id="mn38bhdYBXqbmsw6AmZh-26" value="&lt;font color=&quot;#000000&quot;&gt;发&lt;br&gt;送&lt;br&gt;U&lt;br&gt;R&lt;br&gt;L&lt;br&gt;到&lt;br&gt;队&lt;br&gt;列&lt;/font&gt;" style="text;html=1;align=center;verticalAlign=middle;resizable=0;points=[];autosize=1;strokeColor=none;fontColor=#FF9933;fontStyle=1" vertex="1" parent="1">
          <mxGeometry x="844" y="240" width="30" height="120" as="geometry" />
        </mxCell>
        <mxCell id="mn38bhdYBXqbmsw6AmZh-27" value="&lt;font color=&quot;#000000&quot;&gt;从&lt;br&gt;队&lt;br&gt;列&lt;br&gt;中&lt;br&gt;取&lt;br&gt;U&lt;br&gt;R&lt;br&gt;L&lt;/font&gt;" style="text;html=1;align=center;verticalAlign=middle;resizable=0;points=[];autosize=1;strokeColor=none;fontColor=#FF9933;fontStyle=1" vertex="1" parent="1">
          <mxGeometry x="901" y="234" width="30" height="120" as="geometry" />
        </mxCell>
        <mxCell id="mn38bhdYBXqbmsw6AmZh-30" style="edgeStyle=orthogonalEdgeStyle;rounded=0;orthogonalLoop=1;jettySize=auto;html=1;exitX=0.75;exitY=0;exitDx=0;exitDy=0;fontColor=#9673A6;startArrow=classicThin;startFill=1;endArrow=none;endFill=0;strokeWidth=2;" edge="1" parent="1" source="mn38bhdYBXqbmsw6AmZh-29">
          <mxGeometry relative="1" as="geometry">
            <mxPoint x="910" y="414" as="targetPoint" />
          </mxGeometry>
        </mxCell>
        <mxCell id="mn38bhdYBXqbmsw6AmZh-31" value="&lt;font color=&quot;#000000&quot;&gt;获取请求结果&lt;/font&gt;" style="edgeLabel;html=1;align=center;verticalAlign=middle;resizable=0;points=[];fontColor=#9673A6;fontStyle=1" vertex="1" connectable="0" parent="mn38bhdYBXqbmsw6AmZh-30">
          <mxGeometry x="-0.1111" y="1" relative="1" as="geometry">
            <mxPoint x="17" as="offset" />
          </mxGeometry>
        </mxCell>
        <mxCell id="mn38bhdYBXqbmsw6AmZh-93" style="edgeStyle=orthogonalEdgeStyle;rounded=0;orthogonalLoop=1;jettySize=auto;html=1;exitX=0.25;exitY=0;exitDx=0;exitDy=0;entryX=0.24;entryY=1.1;entryDx=0;entryDy=0;entryPerimeter=0;strokeWidth=2;endArrow=classicThin;endFill=1;" edge="1" parent="1" source="mn38bhdYBXqbmsw6AmZh-29" target="mn38bhdYBXqbmsw6AmZh-14">
          <mxGeometry relative="1" as="geometry" />
        </mxCell>
        <mxCell id="mn38bhdYBXqbmsw6AmZh-95" value="&lt;div&gt;&lt;span style=&quot;font-size: 11px&quot;&gt;处理请求结果&lt;/span&gt;&lt;/div&gt;&lt;div&gt;&lt;span style=&quot;font-size: 11px&quot;&gt;后发给引擎&lt;/span&gt;&lt;/div&gt;&lt;div&gt;&lt;span style=&quot;font-size: 11px&quot;&gt;(数据或提取的URL)&lt;/span&gt;&lt;/div&gt;" style="edgeLabel;html=1;align=center;verticalAlign=middle;resizable=0;points=[];fontStyle=1" vertex="1" connectable="0" parent="mn38bhdYBXqbmsw6AmZh-93">
          <mxGeometry x="-0.24" y="-2" relative="1" as="geometry">
            <mxPoint x="-23" y="-3" as="offset" />
          </mxGeometry>
        </mxCell>
        <mxCell id="mn38bhdYBXqbmsw6AmZh-29" value="爬虫处理程序" style="rounded=0;whiteSpace=wrap;html=1;strokeWidth=2;fillColor=#e1d5e7;strokeColor=#9673a6;fontColor=#9673A6;fontStyle=1" vertex="1" parent="1">
          <mxGeometry x="835" y="500" width="120" height="50" as="geometry" />
        </mxCell>
        <mxCell id="mn38bhdYBXqbmsw6AmZh-37" value="" style="edgeStyle=orthogonalEdgeStyle;rounded=0;orthogonalLoop=1;jettySize=auto;html=1;fontColor=#D6B656;startArrow=none;startFill=0;endArrow=classicThin;endFill=1;strokeWidth=2;" edge="1" parent="1" source="mn38bhdYBXqbmsw6AmZh-35" target="mn38bhdYBXqbmsw6AmZh-36">
          <mxGeometry relative="1" as="geometry" />
        </mxCell>
        <mxCell id="mn38bhdYBXqbmsw6AmZh-35" value="统一生成ID" style="rounded=0;whiteSpace=wrap;html=1;strokeWidth=2;fillColor=#fff2cc;strokeColor=#D6B656;fontStyle=1;fontColor=#D6B656;" vertex="1" parent="1">
          <mxGeometry x="527" y="352.4" width="90" height="40" as="geometry" />
        </mxCell>
        <mxCell id="mn38bhdYBXqbmsw6AmZh-39" value="" style="edgeStyle=orthogonalEdgeStyle;rounded=0;orthogonalLoop=1;jettySize=auto;html=1;fontColor=#D6B656;startArrow=none;startFill=0;endArrow=classicThin;endFill=1;strokeWidth=2;" edge="1" parent="1" source="mn38bhdYBXqbmsw6AmZh-36" target="mn38bhdYBXqbmsw6AmZh-38">
          <mxGeometry relative="1" as="geometry" />
        </mxCell>
        <mxCell id="mn38bhdYBXqbmsw6AmZh-36" value="声音名称简单清洗去重" style="rounded=0;whiteSpace=wrap;html=1;strokeWidth=2;fillColor=#fff2cc;strokeColor=#D6B656;fontStyle=1;fontColor=#D6B656;" vertex="1" parent="1">
          <mxGeometry x="357" y="352.4" width="125" height="40" as="geometry" />
        </mxCell>
        <mxCell id="mn38bhdYBXqbmsw6AmZh-38" value="数据sink" style="rounded=0;whiteSpace=wrap;html=1;strokeWidth=2;fillColor=#fff2cc;strokeColor=#D6B656;fontStyle=1;fontColor=#D6B656;" vertex="1" parent="1">
          <mxGeometry x="197" y="352.5" width="110" height="40" as="geometry" />
        </mxCell>
        <mxCell id="mn38bhdYBXqbmsw6AmZh-41" value="&lt;font color=&quot;#000000&quot;&gt;&lt;b&gt;数据PIPELINE&lt;/b&gt;&lt;/font&gt;" style="text;html=1;align=center;verticalAlign=middle;resizable=0;points=[];autosize=1;strokeColor=none;fontColor=#D6B656;" vertex="1" parent="1">
          <mxGeometry x="365" y="320" width="90" height="20" as="geometry" />
        </mxCell>
        <mxCell id="mn38bhdYBXqbmsw6AmZh-48" style="edgeStyle=orthogonalEdgeStyle;rounded=0;orthogonalLoop=1;jettySize=auto;html=1;exitX=0.5;exitY=0;exitDx=0;exitDy=0;entryX=0;entryY=0.75;entryDx=0;entryDy=0;entryPerimeter=0;fontColor=#B85450;startArrow=none;startFill=0;endArrow=classicThin;endFill=1;strokeWidth=2;" edge="1" parent="1" source="mn38bhdYBXqbmsw6AmZh-45" target="mn38bhdYBXqbmsw6AmZh-13">
          <mxGeometry relative="1" as="geometry" />
        </mxCell>
        <mxCell id="mn38bhdYBXqbmsw6AmZh-49" value="&lt;font color=&quot;#000000&quot;&gt;&lt;b&gt;给引擎一个目标URL&lt;br&gt;驱动整个流程&lt;br&gt;&lt;/b&gt;&lt;/font&gt;" style="edgeLabel;html=1;align=center;verticalAlign=middle;resizable=0;points=[];fontColor=#B85450;" vertex="1" connectable="0" parent="mn38bhdYBXqbmsw6AmZh-48">
          <mxGeometry x="-0.535" y="-1" relative="1" as="geometry">
            <mxPoint x="-1" y="13" as="offset" />
          </mxGeometry>
        </mxCell>
        <mxCell id="mn38bhdYBXqbmsw6AmZh-45" value="信号(一个URL地址)" style="rounded=1;whiteSpace=wrap;html=1;strokeWidth=2;fillColor=#f8cecc;fontStyle=1;strokeColor=#B85450;fontColor=#B85450;" vertex="1" parent="1">
          <mxGeometry x="640" y="505" width="120" height="40" as="geometry" />
        </mxCell>
        <mxCell id="mn38bhdYBXqbmsw6AmZh-55" style="edgeStyle=orthogonalEdgeStyle;rounded=0;orthogonalLoop=1;jettySize=auto;html=1;exitX=0;exitY=0.5;exitDx=0;exitDy=0;fontColor=#0066CC;startArrow=none;startFill=0;endArrow=classicThin;endFill=1;strokeWidth=2;" edge="1" parent="1" source="mn38bhdYBXqbmsw6AmZh-51" target="mn38bhdYBXqbmsw6AmZh-53">
          <mxGeometry relative="1" as="geometry" />
        </mxCell>
        <mxCell id="mn38bhdYBXqbmsw6AmZh-51" value="Talos" style="shape=dataStorage;whiteSpace=wrap;html=1;fixedSize=1;strokeWidth=2;fillColor=#d5e8d4;strokeColor=#82B366;fontStyle=1;fontColor=#82B366;" vertex="1" parent="1">
          <mxGeometry x="10" y="337.5" width="100" height="55" as="geometry" />
        </mxCell>
        <mxCell id="mn38bhdYBXqbmsw6AmZh-53" value="" style="aspect=fixed;html=1;points=[];align=center;image;fontSize=12;image=img/lib/azure2/general/Files.svg;fontColor=#82B366;strokeColor=#82B366;strokeWidth=2;" vertex="1" parent="1">
          <mxGeometry x="-120" y="330" width="64" height="70" as="geometry" />
        </mxCell>
        <mxCell id="mn38bhdYBXqbmsw6AmZh-67" value="" style="edgeStyle=orthogonalEdgeStyle;rounded=0;orthogonalLoop=1;jettySize=auto;html=1;fontColor=#B85450;startArrow=none;startFill=0;endArrow=classicThin;endFill=1;strokeWidth=2;" edge="1" parent="1" source="mn38bhdYBXqbmsw6AmZh-54" target="mn38bhdYBXqbmsw6AmZh-65">
          <mxGeometry relative="1" as="geometry" />
        </mxCell>
        <mxCell id="mn38bhdYBXqbmsw6AmZh-54" value="HDFS(每日爬取)" style="text;html=1;align=center;verticalAlign=middle;resizable=0;points=[];autosize=1;strokeColor=none;fontColor=#0066CC;fontStyle=1" vertex="1" parent="1">
          <mxGeometry x="-138" y="410" width="100" height="20" as="geometry" />
        </mxCell>
        <mxCell id="mn38bhdYBXqbmsw6AmZh-57" value="" style="aspect=fixed;html=1;points=[];align=center;image;fontSize=12;image=img/lib/azure2/general/Files.svg;fontColor=#82B366;strokeColor=#82B366;strokeWidth=2;" vertex="1" parent="1">
          <mxGeometry x="-212" y="330" width="64" height="70" as="geometry" />
        </mxCell>
        <mxCell id="mn38bhdYBXqbmsw6AmZh-66" value="" style="edgeStyle=orthogonalEdgeStyle;rounded=0;orthogonalLoop=1;jettySize=auto;html=1;fontColor=#B85450;startArrow=none;startFill=0;endArrow=classicThin;endFill=1;strokeWidth=2;" edge="1" parent="1" source="mn38bhdYBXqbmsw6AmZh-58" target="mn38bhdYBXqbmsw6AmZh-65">
          <mxGeometry relative="1" as="geometry" />
        </mxCell>
        <mxCell id="mn38bhdYBXqbmsw6AmZh-58" value="HDFS(每日全量)" style="text;html=1;align=center;verticalAlign=middle;resizable=0;points=[];autosize=1;strokeColor=none;fontColor=#0066CC;fontStyle=1" vertex="1" parent="1">
          <mxGeometry x="-230" y="410" width="100" height="20" as="geometry" />
        </mxCell>
        <mxCell id="mn38bhdYBXqbmsw6AmZh-69" value="" style="edgeStyle=orthogonalEdgeStyle;rounded=0;orthogonalLoop=1;jettySize=auto;html=1;fontColor=#B85450;startArrow=none;startFill=0;endArrow=classicThin;endFill=1;strokeWidth=2;" edge="1" parent="1" source="mn38bhdYBXqbmsw6AmZh-65" target="mn38bhdYBXqbmsw6AmZh-68">
          <mxGeometry relative="1" as="geometry" />
        </mxCell>
        <mxCell id="mn38bhdYBXqbmsw6AmZh-65" value="merge操作" style="rounded=0;whiteSpace=wrap;html=1;strokeWidth=2;fillColor=#f8cecc;strokeColor=#B85450;fontStyle=1;fontColor=#B85450;" vertex="1" parent="1">
          <mxGeometry x="-190" y="520" width="120" height="40" as="geometry" />
        </mxCell>
        <mxCell id="mn38bhdYBXqbmsw6AmZh-72" value="" style="edgeStyle=orthogonalEdgeStyle;rounded=0;orthogonalLoop=1;jettySize=auto;html=1;fontColor=#B85450;startArrow=none;startFill=0;endArrow=classicThin;endFill=1;strokeWidth=2;" edge="1" parent="1" source="mn38bhdYBXqbmsw6AmZh-68" target="mn38bhdYBXqbmsw6AmZh-70">
          <mxGeometry relative="1" as="geometry" />
        </mxCell>
        <mxCell id="mn38bhdYBXqbmsw6AmZh-68" value="ID去重" style="rounded=0;whiteSpace=wrap;html=1;strokeWidth=2;fillColor=#f8cecc;strokeColor=#B85450;fontStyle=1;fontColor=#B85450;" vertex="1" parent="1">
          <mxGeometry x="-190" y="590" width="120" height="40" as="geometry" />
        </mxCell>
        <mxCell id="mn38bhdYBXqbmsw6AmZh-70" value="生成次日全量索引" style="rounded=0;whiteSpace=wrap;html=1;strokeWidth=2;fillColor=#f8cecc;strokeColor=#B85450;fontStyle=1;fontColor=#B85450;" vertex="1" parent="1">
          <mxGeometry x="-190" y="660" width="120" height="40" as="geometry" />
        </mxCell>
        <mxCell id="mn38bhdYBXqbmsw6AmZh-74" value="&lt;b&gt;&lt;font color=&quot;#000000&quot;&gt;次日流程&lt;/font&gt;&lt;/b&gt;" style="text;html=1;align=center;verticalAlign=middle;resizable=0;points=[];autosize=1;strokeColor=none;fontColor=#B85450;" vertex="1" parent="1">
          <mxGeometry x="-212" y="490" width="60" height="20" as="geometry" />
        </mxCell>
        <mxCell id="mn38bhdYBXqbmsw6AmZh-75" value="" style="aspect=fixed;html=1;points=[];align=center;image;fontSize=12;image=img/lib/azure2/general/Files.svg;fontColor=#82B366;strokeColor=#82B366;strokeWidth=2;" vertex="1" parent="1">
          <mxGeometry x="-156" y="770" width="64" height="70" as="geometry" />
        </mxCell>
        <mxCell id="mn38bhdYBXqbmsw6AmZh-76" value="HDFS(次日全量)" style="text;html=1;align=center;verticalAlign=middle;resizable=0;points=[];autosize=1;strokeColor=none;fontColor=#0066CC;fontStyle=1" vertex="1" parent="1">
          <mxGeometry x="-174" y="850" width="100" height="20" as="geometry" />
        </mxCell>
      </root>
    </mxGraphModel>
  </diagram>
</mxfile>
